<svg xmlns="http://www.w3.org/2000/svg" viewBox="0 0 64 64"><defs><linearGradient id="g" x1="0" y1="0" x2="1" y2="1"><stop offset="0" stop-color="#16A0AE"/><stop offset="1" stop-color="#0A5A66"/></linearGradient></defs><rect width="64" height="64" rx="15" fill="url(#g)"/><g stroke="#FFFFFF" stroke-opacity=".55" stroke-width="2.2"><path d="M16 22L32 14"/><path d="M16 22L32 32"/><path d="M16 22L32 50"/><path d="M16 42L32 14"/><path d="M16 42L32 32"/><path d="M16 42L32 50"/><path d="M32 14L48 32"/><path d="M32 32L48 32"/><path d="M32 50L48 32"/></g><circle cx="16" cy="22" r="5" fill="#FFFFFF"/><circle cx="16" cy="42" r="5" fill="#FFFFFF"/><circle cx="32" cy="14" r="5" fill="#FFFFFF"/><circle cx="32" cy="32" r="5" fill="#FFFFFF"/><circle cx="32" cy="50" r="5" fill="#FFFFFF"/><circle cx="48" cy="32" r="6.5" fill="#F2B84B"/></svg>